<svg width="1920" height="39" viewBox="0 0 1920 39" fill="none" xmlns="http://www.w3.org/2000/svg">
<g clip-path="url(#clip0_215_7)">
<path fill-rule="evenodd" clip-rule="evenodd" d="M1877.76 23.791L1874.46 20.504L1879.97 15.027H1868.96L1874.46 20.504L1871.16 23.791H1789.44L1784.75 28.484L1775.5 37.704L1769.34 31.559L1738.09 31.695H1733.08L1720.42 19.079H1686.79L1679.55 26.293L1386.29 26.255L1380.52 20.508L1371.87 29.132L1368.98 26.255L1203.82 26.293L1191.06 38.996L1167.01 15.027L1167 15.038L1166.99 15.027L1157.94 24.049H1154.09L1151.99 21.956L1155.33 18.643H1148.67L1151.99 21.956L1149.93 24.007L1072 24.04V24.049L1061 24.044L1050 24.049V24.04L972.067 24.007L970.005 21.956L973.326 18.643H966.67L970.005 21.956L967.906 24.049H964.064L955.012 15.027L955 15.038L954.993 15.027L930.942 38.996L918.181 26.293L818.02 26.255L815.129 29.132L806.48 20.508L800.71 26.255L661.448 26.293L654.209 19.079H620.578L607.919 31.695H602.91L571.663 31.559L565.497 37.704L556.251 28.484L551.557 23.791H469.844L466.539 20.504L472.035 15.027H461.031L466.539 20.504L463.241 23.791H204.638L195.467 15.027L195.449 15.049L195.426 15.027L179.458 31.695H166.537L158.884 24.049H0.000976562V-0.0119629H1920V24.049L1877.76 23.791ZM228.624 15.027H226.889V20.205H228.624V15.027ZM231.248 15.027H229.518V20.205H231.248V15.027ZM243.37 15.027H241.64V20.205H243.37V15.027ZM264.168 15.027H258.973V20.205H264.168V15.027ZM584.675 24.989H582.941V26.714H584.675V24.989ZM591.316 21.536H589.582V26.714H591.316V21.536ZM604.751 21.536H603.017V23.26H604.751V21.536ZM604.751 24.989H603.017V26.714H604.751V24.989ZM1737.98 21.536H1736.25V23.26H1737.98V21.536ZM1737.98 24.989H1736.25V26.714H1737.98V24.989ZM1751.42 21.536H1749.68V26.714H1751.42V21.536ZM1758.06 24.989H1756.32V26.714H1758.06V24.989ZM1877.79 23.818H1871.13L1871.16 23.791H1877.76L1877.79 23.818ZM1367.78 33.211L1371.87 29.132L1375.97 33.211H1367.78ZM469.871 23.818H463.214L463.241 23.791H469.844L469.871 23.818Z" fill="#F8F207"/>
</g>
<defs>
<clipPath id="clip0_215_7">
<rect width="1920" height="39" fill="white"/>
</clipPath>
</defs>
</svg>
