<svg width="49" height="103" viewBox="0 0 49 103" fill="none" xmlns="http://www.w3.org/2000/svg">
<g filter="url(#filter0_d_49_199)">
<rect x="8.68085" width="2.17021" height="19.5319" fill="#F8F207"/>
<rect y="10.8511" width="2.17021" height="19.5319" transform="rotate(-90 0 10.8511)" fill="#F8F207"/>
<rect x="36.1702" width="2.17021" height="19.5319" fill="#F8F207"/>
<rect x="27.4894" y="10.8511" width="2.17021" height="19.5319" transform="rotate(-90 27.4894 10.8511)" fill="#F8F207"/>
<rect x="8.68085" y="27.4894" width="2.17021" height="19.5319" fill="#F8F207"/>
<rect y="38.3405" width="2.17021" height="19.5319" transform="rotate(-90 0 38.3405)" fill="#F8F207"/>
<rect x="36.1702" y="27.4894" width="2.17021" height="19.5319" fill="#F8F207"/>
<rect x="27.4894" y="38.3405" width="2.17021" height="19.5319" transform="rotate(-90 27.4894 38.3405)" fill="#F8F207"/>
<rect x="8.68085" y="54.9787" width="2.17021" height="19.5319" fill="#F8F207"/>
<rect y="65.8298" width="2.17021" height="19.5319" transform="rotate(-90 0 65.8298)" fill="#F8F207"/>
<rect x="36.1702" y="54.9787" width="2.17021" height="19.5319" fill="#F8F207"/>
<rect x="27.4894" y="65.8298" width="2.17021" height="19.5319" transform="rotate(-90 27.4894 65.8298)" fill="#F8F207"/>
<rect x="8.68085" y="82.4681" width="2.17021" height="19.5319" fill="#F8F207"/>
<rect y="93.3192" width="2.17021" height="19.5319" transform="rotate(-90 0 93.3192)" fill="#F8F207"/>
<rect x="36.1702" y="82.4681" width="2.17021" height="19.5319" fill="#F8F207"/>
<rect x="27.4894" y="93.3192" width="2.17021" height="19.5319" transform="rotate(-90 27.4894 93.3192)" fill="#F8F207"/>
</g>
<defs>
<filter id="filter0_d_49_199" x="0" y="0" width="48.0213" height="103" filterUnits="userSpaceOnUse" color-interpolation-filters="sRGB">
<feFlood flood-opacity="0" result="BackgroundImageFix"/>
<feColorMatrix in="SourceAlpha" type="matrix" values="0 0 0 0 0 0 0 0 0 0 0 0 0 0 0 0 0 0 127 0" result="hardAlpha"/>
<feOffset dx="1" dy="1"/>
<feComposite in2="hardAlpha" operator="out"/>
<feColorMatrix type="matrix" values="0 0 0 0 0.231373 0 0 0 0 0.717647 0 0 0 0 0.807843 0 0 0 1 0"/>
<feBlend mode="normal" in2="BackgroundImageFix" result="effect1_dropShadow_49_199"/>
<feBlend mode="normal" in="SourceGraphic" in2="effect1_dropShadow_49_199" result="shape"/>
</filter>
</defs>
</svg>
