<svg width="103" height="49" viewBox="0 0 103 49" fill="none" xmlns="http://www.w3.org/2000/svg">
<g filter="url(#filter0_d_49_225)">
<rect y="38.3404" width="2.17021" height="19.5319" transform="rotate(-90 0 38.3404)" fill="#F8F207"/>
<rect x="10.8511" y="47.0212" width="2.17021" height="19.5319" transform="rotate(-180 10.8511 47.0212)" fill="#F8F207"/>
<rect x="27.4893" y="38.3404" width="2.17021" height="19.5319" transform="rotate(-90 27.4893 38.3404)" fill="#F8F207"/>
<rect x="38.3404" y="47.0212" width="2.17021" height="19.5319" transform="rotate(-180 38.3404 47.0212)" fill="#F8F207"/>
<rect x="27.4893" y="10.851" width="2.17021" height="19.5319" transform="rotate(-90 27.4893 10.851)" fill="#F8F207"/>
<rect x="38.3404" y="19.5319" width="2.17021" height="19.5319" transform="rotate(-180 38.3404 19.5319)" fill="#F8F207"/>
<rect x="54.9788" y="10.851" width="2.17021" height="19.5319" transform="rotate(-90 54.9788 10.851)" fill="#F8F207"/>
<rect x="65.8298" y="19.5319" width="2.17021" height="19.5319" transform="rotate(-180 65.8298 19.5319)" fill="#F8F207"/>
<rect x="82.4681" y="38.3404" width="2.17021" height="19.5319" transform="rotate(-90 82.4681 38.3404)" fill="#F8F207"/>
<rect x="93.3192" y="47.0212" width="2.17021" height="19.5319" transform="rotate(-180 93.3192 47.0212)" fill="#F8F207"/>
</g>
<defs>
<filter id="filter0_d_49_225" x="0" y="-6.10352e-05" width="103" height="48.0213" filterUnits="userSpaceOnUse" color-interpolation-filters="sRGB">
<feFlood flood-opacity="0" result="BackgroundImageFix"/>
<feColorMatrix in="SourceAlpha" type="matrix" values="0 0 0 0 0 0 0 0 0 0 0 0 0 0 0 0 0 0 127 0" result="hardAlpha"/>
<feOffset dx="1" dy="1"/>
<feComposite in2="hardAlpha" operator="out"/>
<feColorMatrix type="matrix" values="0 0 0 0 0.231373 0 0 0 0 0.717647 0 0 0 0 0.807843 0 0 0 1 0"/>
<feBlend mode="normal" in2="BackgroundImageFix" result="effect1_dropShadow_49_225"/>
<feBlend mode="normal" in="SourceGraphic" in2="effect1_dropShadow_49_225" result="shape"/>
</filter>
</defs>
</svg>
